<?xml version="1.0" encoding="UTF-8" standalone="no"?>
<svg
   width="1200pt"
   height="1200pt"
   version="1.1"
   viewBox="0 0 1200 1200"
   id="svg10"
   sodipodi:docname="color-picker-4.svg"
   inkscape:version="1.4.2 (f4327f4, 2025-05-13)"
   xmlns:inkscape="http://www.inkscape.org/namespaces/inkscape"
   xmlns:sodipodi="http://sodipodi.sourceforge.net/DTD/sodipodi-0.dtd"
   xmlns="http://www.w3.org/2000/svg"
   xmlns:svg="http://www.w3.org/2000/svg">
  <defs
     id="defs10" />
  <sodipodi:namedview
     id="namedview10"
     pagecolor="#ffffff"
     bordercolor="#000000"
     borderopacity="0.25"
     inkscape:showpageshadow="2"
     inkscape:pageopacity="0.0"
     inkscape:pagecheckerboard="0"
     inkscape:deskcolor="#d1d1d1"
     inkscape:document-units="pt"
     inkscape:zoom="1.2993087"
     inkscape:cx="1135.2191"
     inkscape:cy="394.44052"
     inkscape:window-width="1920"
     inkscape:window-height="974"
     inkscape:window-x="-11"
     inkscape:window-y="-11"
     inkscape:window-maximized="1"
     inkscape:current-layer="svg10" />
  <path
     fill="#0186BB"
     d="m769.11 671.65v2.6992c0 124.71-101.31 226.2-226.02 226.2-124.71 0-226.2-101.49-226.2-226.2 0-124.54 101.49-226.02 226.2-226.02 11.328 0 22.305 0.89844 33.105 2.5234l-9 10.254c-31.676 35.805-43.375 83.859-32.93 129.39l-9.7227 10.977c-15.652 17.629-23.398 40.305-21.953 63.707 1.4453 23.398 11.875 44.98 29.508 60.457 16.199 14.223 36.707 21.953 58.129 21.953 25.375 0 49.305-10.801 66.035-29.699l12.23-13.852c2.6992 0.17578 5.5781 0.35156 8.4531 0.35156 33.684 0.015626 66.242-11.684 92.168-32.734z"
     id="path1" />
  <path
     fill="#FEC958"
     d="m764.79 236.89-161.05 182.82c-13.852-3.4219-28.078-5.5781-42.652-6.4766v-229.08c73.234 2.6992 142.16 21.23 203.7 52.73z"
     id="path2" />
  <path
     fill="#009697"
     d="m282.3 700.75h-229.25c6.3867 120.74 56.488 229.8 134.66 311.91l161.95-161.95c-36.949-40.516-61.602-92.418-67.355-149.96z"
     id="path3" />
  <path
     fill="#00B066"
     d="m281.45 664.77c2.207-59.895 24.316-114.76 60.281-157.89l-162.14-162.14c-77.047 84.879-124.62 196.92-127.02 320.03z"
     id="path4" />
  <path
     fill="#FE673A"
     d="m803.82 700.75c-5.7695 57.531-30.406 109.45-67.359 149.96l161.95 161.96c78.176-82.113 128.28-191.19 134.66-311.91z"
     id="path5" />
  <path
     fill="#7A4490"
     d="m710.61 875.75c-41.137 34.289-92.93 55.992-149.56 59.859v229.09c119.82-4.3242 228.72-51.492 311.7-126.81z"
     id="path6" />
  <path
     fill="#FE9447"
     d="m1033.6 664.82h-228.9c-0.35156-9.3516-1.2539-18.531-2.5234-27.531l172.57-195.97c36.176 66.762 57.23 142.7 58.852 223.5z"
     id="path7" />
  <path
     fill="#4A5096"
     d="m525.07 935.63c-56.629-3.8828-108.42-25.57-149.56-59.859l-162.14 162.14c82.977 75.316 191.88 122.47 311.7 126.81z"
     id="path8" />
  <path
     fill="#84CC64"
     d="m366.79 481.02c42.441-38.719 97.48-63.617 158.28-67.781v-229.08c-124.02 4.4805-236.24 54.953-320.22 134.91z"
     id="path9" />
  <path
     fill="#000000"
     d="m 1051.4,282.6 -3.5117,-3.0898 75.688,-85.852 c 34.871,-39.547 31.094,-99.742 -8.3281,-134.49 -39.547,-34.871 -99.742,-31.094 -134.61,8.4531 l -75.688,85.852 -4.4453,-3.9336 c -19.023,-16.781 -47.98,-14.965 -64.766,4.0781 -15,17.012 -15.09,41.875 -1.3945,58.992 l -240.18,272.36 c -28.57,32.398 -34.57,76.766 -19.605,114.2 l -23.082,26.188 c -19.043,21.602 -16.977,54.352 4.4805,73.289 21.602,19.043 54.352,16.977 73.41,-4.6055 l 24.758,-28.078 c 37.605,7.957 78.406,-4.043 105.67,-34.941 l 240.76,-273.05 c 18.16,9.0547 40.766,5.4688 54.918,-10.59 16.785,-19.055 14.949,-47.996 -4.0742,-64.777 z m -203.47673,213.08327 -92.24454,-158.77919 96.637,-106.34469 127.26388,109.06192 z"
     id="path10"
     sodipodi:nodetypes="ccccccccccccccccccccccccc" />
  <path
     id="path12"
     style="fill:#0186BB"
     d="m 675.52148,426.72852 c -21.84588,24.79032 -43.71689,49.55903 -65.54707,74.36287 -3.9557,4.64729 -7.40069,9.72376 -10.30449,15.09025 -0.53629,1.01893 -1.19118,2.26633 -1.73138,3.39396 -0.62363,1.2816 -1.19035,2.52117 -1.76888,3.88191 -0.96679,2.23731 -1.86533,4.6747 -2.61107,6.88819 -2.44599,7.38429 -3.89182,15.09474 -4.29101,22.86328 -0.083,1.63621 -0.1328,3.48863 -0.11736,5.21172 0.0216,3.18448 0.22253,6.34726 0.57439,9.46016 0.96733,8.53429 3.20083,16.90764 6.482,24.83986 1.52904,4.09367 1.63982,8.68218 0.28132,12.83689 -1.11003,3.62641 -3.26164,6.85369 -5.89398,9.55459 -8.07324,9.04037 -16.15364,18.07998 -23.94664,27.36352 -1.51627,1.96479 -2.79159,4.33541 -3.65122,6.52819 -3.05243,7.76076 -2.70893,16.84238 1.21586,24.23571 3.62451,7.09215 10.25046,12.56604 17.91305,14.75061 1.75351,0.51043 3.61304,0.86152 5.33396,1.03054 8.84787,0.94149 18.01839,-2.45966 24.1231,-8.93132 3.87664,-4.02225 7.36193,-8.39498 11.1322,-12.51432 7.75416,-8.79647 15.50781,-17.5934 23.2623,-26.38958 10.06968,2.18214 20.19806,4.73307 30.57381,4.6315 10.02978,0.0795 20.20526,-1.66583 29.58049,-4.9401 12.11354,-4.19862 23.24194,-11.14829 32.38405,-20.13113 4.544,-4.42041 8.53582,-9.35896 12.76461,-14.07224 27.22904,-30.90492 69.41148,-80.08822 96.64375,-110.99031 -30.76432,-53.71355 -61.48021,-105.06565 -92.24454,-158.77919 -21.72265,24.63216 -58.43459,65.19227 -80.15725,89.82444 z"
     sodipodi:nodetypes="ccccccccccccccccccccccccccc" />
  <path
     d="m 847.92327,495.68327 -92.24454,-158.77919 96.637,-106.34469 127.26388,109.06192 z"
     id="path14"
     style="fill:#ffffff" />
</svg>
